<svg version="1.1" id="Layer_1" xmlns:sketch="http://www.bohemiancoding.com/sketch/ns"
	 xmlns="http://www.w3.org/2000/svg" xmlns:xlink="http://www.w3.org/1999/xlink" x="0px" y="0px" width="519.84px"
	 height="337.68px" viewBox="0 0 519.84 337.68" enable-background="new 0 0 519.84 337.68" xml:space="preserve">
<g id="Page-1">

		<g id="rocket-sm" transform="translate(71.804347, 122.804347) rotate(-45.000000) translate(-71.804347, -122.804347) translate(-15.695653, 33.804347)" sketch:type="MSLayerGroup">
		<path id="body" sketch:type="MSShapeGroup" fill="#D5DDDF" d="M152.139,331.099l-38.988-40.206
			c40.647-92.394,121.436-102.536,140.631-103.63C252.5,207.336,241.75,289.57,152.139,331.099L152.139,331.099z M199.855,332.185
			l-27.26,41.985l-13.28-13.697l2.269-25.383c14.043-7.078,26.066-15.161,36.438-23.807L199.855,332.185L199.855,332.185z
			 M109.385,279.531l-26.2,2.425l-13.279-13.696l40.846-27.97l22.824,2.163c-8.528,10.532-16.506,22.805-23.519,37.155
			C109.831,279.586,109.62,279.511,109.385,279.531L109.385,279.531z M261.481,183.922c0.031-1.288-0.563-2.502-1.577-3.25
			l-0.775-0.57c-0.656-0.478-1.45-0.692-2.25-0.719c-8.487,0.137-69.72,3.06-117.4,56.138c-0.426-0.234-0.898-0.388-1.401-0.437
			l-27.957-2.648c-0.86-0.07-1.716,0.146-2.436,0.638L61.9,264.417c-0.941,0.643-1.552,1.691-1.663,2.848
			c-0.112,1.157,0.284,2.302,1.083,3.124l17.775,18.335c0.71,0.733,1.666,1.139,2.665,1.139c0.114,0,0.226-0.003,0.339-0.014
			l24.278-2.246c-0.386,0.872-0.798,1.698-1.175,2.587c-0.624,1.462-0.314,3.172,0.783,4.301l42.648,43.977
			c0.72,0.747,1.684,1.139,2.665,1.141c0.508,0,1.021-0.104,1.506-0.32c0.298-0.135,0.571-0.278,0.869-0.416l-2.034,22.699
			c-0.099,1.147,0.298,2.282,1.087,3.099l17.776,18.333c0.713,0.733,1.669,1.139,2.663,1.14c0.125-0.001,0.25-0.004,0.374-0.02
			c1.124-0.11,2.14-0.74,2.765-1.704l30.553-47.062c0.479-0.736,0.7-1.621,0.625-2.506l-2.427-27.74
			C257.905,256.122,261.281,192.666,261.481,183.922L261.481,183.922z"/>
		<path id="window" sketch:type="MSShapeGroup" fill="#D5DDDF" d="M205.118,258.612c-5.37,5.516-14.73,5.507-20.09-0.02
			c-2.676-2.766-4.15-6.438-4.146-10.342c0.004-3.909,1.488-7.578,4.17-10.333c2.684-2.76,6.252-4.278,10.048-4.274
			c3.792,0.004,7.361,1.529,10.039,4.294c2.682,2.765,4.156,6.435,4.151,10.341C209.287,252.184,207.804,255.853,205.118,258.612
			L205.118,258.612z M210.475,232.457c-4.101-4.233-9.558-6.568-15.367-6.574c-5.811-0.006-11.273,2.316-15.381,6.543
			c-4.11,4.222-6.38,9.84-6.384,15.818c-0.006,5.975,2.249,11.601,6.352,15.831c4.1,4.228,9.558,6.563,15.367,6.57
			c5.809,0.005,11.271-2.319,15.383-6.539c4.11-4.222,6.382-9.843,6.387-15.818C216.838,242.308,214.577,236.688,210.475,232.457
			L210.475,232.457z"/>
	</g>
</g>
</svg>
